<svg width="24" height="24" viewBox="0 0 24 24" fill="none" xmlns="http://www.w3.org/2000/svg">
<path d="M22.2513 7.14407V23.3304H1.74863V7.14407" stroke="#9A9998" stroke-width="1.3" stroke-linecap="round" stroke-linejoin="round"/>
<path d="M10.0361 2.8277H14.0935" stroke="#9A9998" stroke-width="1.3" stroke-linecap="round" stroke-linejoin="round"/>
<circle cx="12" cy="4.44634" r="1.61864" stroke="#9A9998" stroke-width="1.3" stroke-linecap="round" stroke-linejoin="round"/>
<path d="M10.7159 3.45357C9.12968 1.86731 6.84201 0.66952 5.52552 0.66952C4.20903 0.66952 4.98597 3.00036 4.98597 3.90679C4.98597 4.81323 4.78095 7.14406 6.06506 7.14406C7.34918 7.14406 10.7699 5.52543 10.7699 5.52543" stroke="#9A9998" stroke-width="1.3" stroke-linecap="round" stroke-linejoin="round"/>
<path d="M13.3166 3.5399C14.9029 1.95364 17.1582 0.66952 18.4746 0.66952C19.7911 0.66952 19.0142 3.00036 19.0142 3.90679C19.0142 4.81323 19.2192 7.14406 17.9351 7.14406C16.651 7.14406 13.3274 5.42831 13.3274 5.42831" stroke="#9A9998" stroke-width="1.3" stroke-linecap="round" stroke-linejoin="round"/>
<path d="M9.48576 6.06497L8.22323 9.30225L9.84186 8.7627L10.3814 10.3813L12 6.06497" stroke="#9A9998" stroke-width="1.3" stroke-linecap="round" stroke-linejoin="round"/>
<path d="M14.5682 6.01102L15.7768 9.30224L14.1582 8.7627L13.6186 10.3813L12 6.06497" stroke="#9A9998" stroke-width="1.3" stroke-linecap="round" stroke-linejoin="round"/>
<path d="M13.6186 23.3304V10.3813" stroke="#9A9998" stroke-width="1.3" stroke-linecap="round" stroke-linejoin="round"/>
<path d="M10.3814 10.3813V23.3304" stroke="#9A9998" stroke-width="1.3" stroke-linecap="round" stroke-linejoin="round"/>
<path fill-rule="evenodd" clip-rule="evenodd" d="M11.6008 7.14407H12.4101L12 6.06497L11.6008 7.14407Z" stroke="#9A9998" stroke-width="1.3" stroke-linecap="round" stroke-linejoin="round"/>
<path d="M14.9675 7.14407H23.3305V2.82771H19.1436" stroke="#9A9998" stroke-width="1.3" stroke-linecap="round" stroke-linejoin="round"/>
<path d="M4.85642 2.82771H0.669552V7.14407H9.0325" stroke="#9A9998" stroke-width="1.3" stroke-linecap="round" stroke-linejoin="round"/>
</svg>
