<svg width="18" height="20" viewBox="0 0 18 20" fill="none" xmlns="http://www.w3.org/2000/svg">
<path d="M0.816377 4.48978H2.63044H17.1429" stroke="#E90101" stroke-width="1.6" stroke-linecap="round" stroke-linejoin="round"/>
<path d="M16.1453 4.48979C16.1453 4.03894 15.7798 3.67346 15.3289 3.67346C14.8781 3.67346 14.5126 4.03894 14.5126 4.48979H16.1453ZM3.44682 4.48979C3.44682 4.03894 3.08134 3.67346 2.63049 3.67346C2.17965 3.67346 1.81417 4.03894 1.81417 4.48979H3.44682ZM4.53526 4.48979C4.53526 4.94063 4.90074 5.30612 5.35159 5.30612C5.80243 5.30612 6.16791 4.94063 6.16791 4.48979H4.53526ZM11.7915 4.48979C11.7915 4.94063 12.157 5.30612 12.6078 5.30612C13.0587 5.30612 13.4242 4.94063 13.4242 4.48979H11.7915ZM14.5126 4.48979V17.3469H16.1453V4.48979H14.5126ZM14.5126 17.3469C14.5126 17.9201 14.0564 18.3674 13.5149 18.3674V20C14.9771 20 16.1453 18.8026 16.1453 17.3469H14.5126ZM13.5149 18.3674H4.44456V20H13.5149V18.3674ZM4.44456 18.3674C3.90305 18.3674 3.44682 17.9201 3.44682 17.3469H1.81417C1.81417 18.8026 2.9823 20 4.44456 20V18.3674ZM3.44682 17.3469V4.48979H1.81417V17.3469H3.44682ZM6.16791 4.48979V2.65305H4.53526V4.48979H6.16791ZM6.16791 2.65305C6.16791 2.07991 6.62414 1.63264 7.16565 1.63264V-1.24683e-05C5.70339 -1.24683e-05 4.53526 1.1974 4.53526 2.65305H6.16791ZM7.16565 1.63264H10.7938V-1.24683e-05H7.16565V1.63264ZM10.7938 1.63264C11.3353 1.63264 11.7915 2.07991 11.7915 2.65305H13.4242C13.4242 1.1974 12.256 -1.24683e-05 10.7938 -1.24683e-05V1.63264ZM11.7915 2.65305V4.48979H13.4242V2.65305H11.7915Z" fill="#E90101"/>
<path d="M7.16565 9.08164V14.5918" stroke="#E90101" stroke-width="1.6" stroke-linecap="round" stroke-linejoin="round"/>
<path d="M10.7936 9.08164V14.5918" stroke="#E90101" stroke-width="1.6" stroke-linecap="round" stroke-linejoin="round"/>
</svg>
