<svg width="24" height="26" viewBox="0 0 24 26" fill="none" xmlns="http://www.w3.org/2000/svg">
<path fill-rule="evenodd" clip-rule="evenodd" d="M7.53064 7.53852C7.53064 4.52262 9.9791 2.07806 12.9999 2.07806C16.0219 2.07806 18.4696 4.52303 18.4696 7.53852C18.4696 10.5548 16.0211 12.9994 12.9999 12.9994C9.9791 12.9994 7.53064 10.5548 7.53064 7.53852ZM8.65778 7.53893C8.65778 9.933 10.6024 11.8742 12.9991 11.8742C15.399 11.8742 17.3433 9.933 17.3429 7.53893C17.3429 5.14486 15.3982 3.20404 12.9991 3.20404C10.602 3.20404 8.65778 5.14486 8.65778 7.53893Z" fill="#9A9998"/>
<path d="M16.0602 6.60191C15.9998 6.6581 12.4789 9.90083 11.7711 10.5601C12.3161 10.8729 12.926 10.8977 13.2038 10.8867C13.4355 10.6684 15.312 8.91005 16.2785 8.0276C16.3368 7.39966 16.1646 6.86049 16.0602 6.60191Z" fill="#9A9998"/>
<path d="M15.7298 5.98822C15.0644 6.58806 11.8596 9.54369 11.2865 10.0755C11.2865 10.0755 11.2865 10.0755 11.211 10.1435C11.2061 10.1435 11.2024 10.1517 11.1947 10.1517C11.1861 10.1635 11.1784 10.1716 11.1661 10.1802C10.9422 10.0079 10.6174 9.59582 10.6174 9.59582L10.6856 9.53962C10.8695 9.3637 14.8323 5.7162 15.1843 5.39164C15.3414 5.53213 15.5543 5.73574 15.7298 5.98822Z" fill="#9A9998"/>
<path d="M10.289 10.8578C10.2776 10.8692 10.2723 10.8749 10.2723 10.8749C10.2723 10.8749 10.2723 10.8749 10.2666 10.8692C10.278 10.8696 10.2833 10.8578 10.289 10.8578Z" fill="#9A9998"/>
<path fill-rule="evenodd" clip-rule="evenodd" d="M17.2682 20.5253C18.2729 20.6067 20.4742 19.1953 20.6831 17.1913C20.6831 17.1913 20.9331 19.9947 24 20.5778C22.8475 20.367 20.5087 22.3944 20.5838 23.8992C20.5199 22.7771 19.3273 20.7457 17.2682 20.5253ZM20.5843 23.9101C20.5841 23.9065 20.5839 23.9029 20.5838 23.8992C20.584 23.9029 20.5842 23.9065 20.5843 23.9101ZM20.6137 21.887C20.6136 21.8856 20.6136 21.8841 20.6135 21.8827L20.6137 21.887ZM19.2944 20.5404C20.1138 20.6284 20.5882 21.4362 20.6135 21.8827C20.584 21.2845 21.5143 20.4774 21.973 20.5607C20.7524 20.329 20.6529 19.2136 20.6529 19.2136C20.5701 20.0118 19.6942 20.5725 19.2944 20.5404Z" fill="#9A9998"/>
<path d="M2.37095 8.91046C2.37095 8.91046 2.54392 10.8566 4.6746 11.2614C3.87177 11.1152 2.24245 12.5303 2.30283 13.5756C2.26367 12.7986 1.43473 11.3795 0 11.2251C0.696764 11.2817 2.22573 10.3019 2.37095 8.91046Z" fill="#9A9998"/>
<path fill-rule="evenodd" clip-rule="evenodd" d="M2.12378 17.1657C3.12854 17.2475 5.3302 15.8361 5.53866 13.8326C5.53866 13.8326 5.78872 16.6347 8.85563 17.2178C7.70353 17.0074 5.36476 19.0352 5.43976 20.5392C5.37591 19.4175 4.18332 17.3865 2.12378 17.1657ZM5.44034 20.5501C5.44013 20.5465 5.43994 20.5429 5.43976 20.5392C5.43996 20.5429 5.44016 20.5465 5.44034 20.5501ZM5.46523 18.8276C5.46514 18.8258 5.46504 18.824 5.46494 18.8222L5.46523 18.8276ZM3.85059 17.1787C4.85287 17.2863 5.43408 18.2754 5.46494 18.8222C5.42879 18.0889 6.56845 17.1016 7.12963 17.204C5.63534 16.9205 5.51336 15.5547 5.51336 15.5547C5.41179 16.5308 4.34012 17.219 3.85059 17.1787Z" fill="#9A9998"/>
<path fill-rule="evenodd" clip-rule="evenodd" d="M5.36731 7.61712C5.36731 3.4109 8.78423 0 12.9974 0C17.2172 0 20.6337 3.4109 20.6325 7.61834C20.6325 10.7662 18.7237 13.4677 16.0003 14.6291C15.9961 14.6308 15.992 14.6329 15.9883 14.6348C15.9822 14.6378 15.9769 14.6405 15.9734 14.6405C15.9611 14.6462 15.9493 14.6515 15.9326 14.658C15.6976 14.7834 14.9176 15.2473 14.9176 16.146V20.4662V20.4772C14.9176 20.5579 14.9352 20.9924 15.297 21.6904C15.3006 21.6973 15.3041 21.7025 15.3078 21.708C15.3099 21.7112 15.3122 21.7146 15.3145 21.7185C15.3651 21.8162 15.4231 21.9188 15.4924 22.0279C15.6764 22.3949 15.7735 22.8017 15.7735 23.2358C15.7735 24.7641 14.528 26 12.9983 26C11.4673 26 10.2287 24.7633 10.2287 23.2358C10.2287 22.6404 10.4176 22.0911 10.733 21.6447C10.9683 21.1813 11.0487 20.838 11.0769 20.643C11.0944 20.529 11.0883 20.465 11.0883 20.465V16.1452C11.0883 16.0821 11.083 16.0128 11.0769 15.9562C10.9745 15.1597 10.2459 14.748 10.057 14.6511C10.028 14.6332 10.0109 14.6275 10.0109 14.6275C7.28178 13.471 5.36731 10.7715 5.36731 7.61712ZM15.5063 13.5451C15.5112 13.5451 15.5218 13.5402 15.5303 13.5349C17.825 12.5563 19.4348 10.2791 19.4352 7.62607C19.4352 4.08079 16.5551 1.20579 12.9991 1.20579C9.44754 1.20579 6.56747 4.08079 6.56747 7.62607C6.56747 10.2852 8.18088 12.5612 10.4813 13.5353C10.4813 13.5353 10.4951 13.5402 10.5204 13.5548C10.5522 13.5715 10.6049 13.6009 10.6652 13.6391C10.9084 13.7593 11.2262 13.9376 11.4599 14.0716C11.4673 14.0765 12 14.4666 12 15.1841V21.2237C12 21.4318 11.8601 21.7217 11.7381 21.9331L11.4367 22.4181C11.3351 22.6363 11.2686 22.8729 11.2686 23.1295C11.2686 24.0844 12.0441 24.859 13.0003 24.859C13.9573 24.859 14.7332 24.0852 14.7332 23.1295C14.7332 22.9882 14.7141 22.8518 14.6806 22.7219C14.6804 22.7214 14.6798 22.7192 14.6787 22.7153C14.6651 22.6668 14.5787 22.3593 14.3714 21.997C14.3644 21.983 14.3576 21.9716 14.3509 21.9604C14.3471 21.9539 14.3433 21.9475 14.3396 21.9408V21.94C14.3396 21.94 14.3265 21.9196 14.3155 21.8997C14.3135 21.8956 14.3102 21.8907 14.3069 21.8866C14.2278 21.7494 14.0295 21.3593 14.0295 20.8926V15.053C14.0295 15.053 14.1601 14.3803 14.5044 14.1429C14.6814 14.0105 14.9539 13.8326 15.3778 13.6135C15.4137 13.5907 15.4463 13.5724 15.4712 13.5601C15.4753 13.5585 15.4792 13.557 15.4828 13.5556C15.4923 13.5519 15.5001 13.5489 15.5063 13.5451Z" fill="#9A9998"/>
</svg>
