<svg width="23" height="27" viewBox="0 0 23 27" fill="none" xmlns="http://www.w3.org/2000/svg">
<path d="M11.4805 15.9914H11.5C14.4553 15.9914 17.8297 11.7007 18.7944 10.3768C20.753 7.70016 22.8453 3.74129 22.8453 0.659499C22.8453 0.380707 22.596 0.154702 22.2884 0.154702C21.9809 0.154702 21.7316 0.380707 21.7316 0.659499C21.7316 3.05729 20.2505 6.56184 17.8659 9.8203C15.6107 12.9021 13.0591 14.9743 11.5097 14.9831C8.0658 14.8569 1.26838 6.22236 1.26838 0.785698C1.26838 0.506907 1.01908 0.280901 0.711556 0.280901C0.404031 0.280901 0.154733 0.506907 0.154733 0.785698C0.154733 3.36774 1.686 7.05023 4.15551 10.3958C6.69183 13.8334 9.43001 15.9258 11.4805 15.9914Z" fill="#9A9998" stroke="#9A9998" stroke-width="0.3"/>
<path fill-rule="evenodd" clip-rule="evenodd" d="M9.13355 18.263C9.13355 17.0782 10.1931 16.1176 11.5 16.1176C12.1277 16.1176 12.7296 16.3437 13.1734 16.746C13.6172 17.1483 13.8665 17.694 13.8665 18.263C13.8665 19.4479 12.807 20.4084 11.5 20.4084C10.1931 20.4084 9.13355 19.4479 9.13355 18.263ZM10.2472 18.263C10.2472 18.8903 10.8081 19.3988 11.5 19.3988C12.192 19.3988 12.7529 18.8903 12.7529 18.263C12.7529 17.6357 12.192 17.1272 11.5 17.1272C10.8081 17.1272 10.2472 17.6357 10.2472 18.263Z" fill="#9A9998"/>
<path fill-rule="evenodd" clip-rule="evenodd" d="M9.75991 22.2383C9.75991 21.3671 10.539 20.6608 11.5 20.6608C12.4604 20.6622 13.2385 21.3677 13.2401 22.2383C13.2401 23.1096 12.461 23.8158 11.5 23.8158C10.539 23.8158 9.75991 23.1096 9.75991 22.2383ZM10.8736 22.2383C10.8736 22.552 11.154 22.8062 11.5 22.8062C11.8456 22.8055 12.1256 22.5517 12.1264 22.2383C12.1264 21.9247 11.8459 21.6704 11.5 21.6704C11.154 21.6704 10.8736 21.9247 10.8736 22.2383Z" fill="#9A9998"/>
<path fill-rule="evenodd" clip-rule="evenodd" d="M9.96878 25.5826C9.96878 24.8159 10.6544 24.1944 11.5 24.1944C12.3457 24.1944 13.0313 24.8159 13.0313 25.5826C13.0313 26.3493 12.3457 26.9708 11.5 26.9708C10.6544 26.9708 9.96878 26.3493 9.96878 25.5826ZM11.0824 25.5826C11.0824 25.7917 11.2694 25.9612 11.5 25.9612C11.7307 25.9612 11.9177 25.7917 11.9177 25.5826C11.9177 25.3735 11.7307 25.204 11.5 25.204C11.2694 25.204 11.0824 25.3735 11.0824 25.5826Z" fill="#9A9998"/>
<path fill-rule="evenodd" clip-rule="evenodd" d="M4.05253 15.9915C4.05253 14.8763 5.04972 13.9723 6.27982 13.9723C7.50992 13.9723 8.50711 14.8763 8.50711 15.9915C8.50711 17.1066 7.50992 18.0106 6.27982 18.0106C5.04972 18.0106 4.05253 17.1066 4.05253 15.9915ZM5.16617 15.9915C5.16617 16.549 5.66477 17.0011 6.27982 17.0011C6.89487 17.0011 7.39347 16.549 7.39347 15.9915C7.39347 15.4339 6.89487 14.9819 6.27982 14.9819C5.66477 14.9819 5.16617 15.4339 5.16617 15.9915Z" fill="#9A9998"/>
<path fill-rule="evenodd" clip-rule="evenodd" d="M4.75578 19.089C5.01111 18.5302 5.61261 18.1659 6.2798 18.1659C7.19053 18.1666 7.92862 18.8357 7.92939 19.6613C7.92939 20.2662 7.52748 20.8115 6.91107 21.043C6.29466 21.2744 5.58515 21.1465 5.11337 20.7188C4.64159 20.2911 4.50046 19.6479 4.75578 19.089ZM5.78452 19.8457C5.8674 20.0274 6.06291 20.1459 6.2798 20.1459C6.57525 20.1459 6.81498 19.9292 6.81574 19.6613C6.81631 19.4647 6.68609 19.2872 6.48586 19.2116C6.28564 19.136 6.0549 19.1772 5.90133 19.3161C5.74776 19.4549 5.70165 19.664 5.78452 19.8457Z" fill="#9A9998"/>
<path fill-rule="evenodd" clip-rule="evenodd" d="M4.82923 22.7515C4.82718 22.0231 5.4763 21.4309 6.27975 21.4281C6.66678 21.4271 7.03836 21.5657 7.31255 21.8133C7.58675 22.061 7.74104 22.3973 7.74141 22.7482C7.7414 23.4766 7.09061 24.0673 6.28716 24.0682C5.48371 24.0691 4.83127 23.4799 4.82923 22.7515ZM5.94289 22.7449C5.94085 22.9156 6.09137 23.0558 6.27975 23.0586C6.37153 23.06 6.46007 23.0279 6.5255 22.9695C6.59093 22.9111 6.62777 22.8314 6.62776 22.7482C6.62773 22.5774 6.47553 22.4387 6.28714 22.4378C6.09875 22.4369 5.94492 22.5741 5.94289 22.7449Z" fill="#9A9998"/>
<path fill-rule="evenodd" clip-rule="evenodd" d="M14.7713 15.8652C14.7713 14.7501 15.7685 13.8461 16.9986 13.8461C18.2287 13.8461 19.2259 14.7501 19.2259 15.8652C19.2259 16.9804 18.2287 17.8844 16.9986 17.8844C15.7685 17.8844 14.7713 16.9804 14.7713 15.8652ZM15.885 15.8652C15.885 16.4228 16.3835 16.8748 16.9986 16.8748C17.6136 16.8748 18.1122 16.4228 18.1122 15.8652C18.1122 15.3077 17.6136 14.8556 16.9986 14.8556C16.3835 14.8556 15.885 15.3077 15.885 15.8652Z" fill="#9A9998"/>
<path fill-rule="evenodd" clip-rule="evenodd" d="M15.3491 19.5351C15.3491 18.7092 16.0876 18.0397 16.9987 18.0397C17.9094 18.0404 18.6475 18.7095 18.6482 19.5351C18.6482 20.361 17.9097 21.0306 16.9987 21.0306C16.0876 21.0306 15.3491 20.361 15.3491 19.5351ZM16.5034 19.7195C16.5863 19.9012 16.7818 20.0197 16.9987 20.0197C17.2941 20.0197 17.5338 19.803 17.5346 19.5351C17.5352 19.3385 17.4049 19.1609 17.2047 19.0853C17.0045 19.0097 16.7738 19.051 16.6202 19.1898C16.4666 19.3287 16.4205 19.5378 16.5034 19.7195Z" fill="#9A9998"/>
<path fill-rule="evenodd" clip-rule="evenodd" d="M15.5481 22.6253C15.5461 21.8969 16.1952 21.3047 16.9987 21.3019C17.3857 21.3009 17.7573 21.4395 18.0315 21.6871C18.3057 21.9348 18.4599 22.2711 18.4603 22.622C18.4603 23.3503 17.8095 23.9411 17.0061 23.942C16.2026 23.9429 15.5502 23.3537 15.5481 22.6253ZM16.6562 22.622C16.6562 22.7934 16.8095 22.9324 16.9987 22.9324C17.0895 22.9324 17.1766 22.8997 17.2408 22.8415C17.305 22.7833 17.3411 22.7043 17.3411 22.622C17.3411 22.4505 17.1878 22.3115 16.9987 22.3115C16.8095 22.3115 16.6562 22.4505 16.6562 22.622Z" fill="#9A9998"/>
</svg>
