<svg width="22" height="24" viewBox="0 0 22 24" fill="none" xmlns="http://www.w3.org/2000/svg">
<path fill-rule="evenodd" clip-rule="evenodd" d="M20.4685 1.68376C18.6125 -0.343793 15.6677 -0.56722 13.5718 1.16049L13.4064 0.980352C13.1195 0.667672 12.6542 0.667672 12.3672 0.980352C12.0802 1.29303 12.0802 1.79998 12.3672 2.11266L12.5325 2.2928C12.3094 2.61075 12.1168 2.95281 11.9578 3.3136C11.7839 3.71393 11.9407 4.19208 12.3082 4.38158C12.6756 4.57108 13.1144 4.40018 13.2883 3.99985C13.3859 3.78992 13.4991 3.58908 13.6269 3.39938L18.8939 9.14673C18.7309 9.26646 18.5598 9.37256 18.3821 9.46412C17.7791 9.76589 17.1141 9.89012 16.4533 9.8244L11.9184 4.8834C11.0416 3.9551 9.64611 3.9551 8.76926 4.8834L8.28114 5.41524C7.51472 6.26368 7.43433 7.59578 8.09219 8.54626L2.70708 15.4088L1.35294 17.1244C0.921664 17.6796 0.846675 18.466 1.16398 19.1059L0.0775162 21.4134C-0.0647698 21.723 -0.0075215 22.0973 0.219229 22.3399L1.49465 23.7553C1.7199 24.0104 2.07253 24.0733 2.36067 23.9097L4.53361 22.7259C5.12381 23.0707 5.8472 22.9891 6.36013 22.52L13.123 16.1894C13.3227 16.0024 13.4157 15.7136 13.367 15.4317C13.3182 15.1498 13.1352 14.9176 12.8867 14.8226C12.6383 14.7277 12.3622 14.7843 12.1625 14.9713L7.43873 19.389L4.22656 15.8977L9.11567 9.68715L10.7847 11.5057L13.6899 14.671L13.9182 14.9198C14.3339 15.3787 14.901 15.6371 15.4928 15.6371C16.0845 15.6371 16.6517 15.3787 17.0674 14.9198L17.5555 14.388C18.3067 13.5671 18.4127 12.2789 17.8074 11.3256C18.2262 11.2374 18.6334 11.0934 19.0198 10.8967C19.3461 10.7201 19.6547 10.5074 19.941 10.2619L20.1063 10.442C20.3933 10.7547 20.8586 10.7547 21.1455 10.442C21.4325 10.1293 21.4325 9.62239 21.1455 9.30971L20.9802 9.12957C22.514 6.84843 22.297 3.69056 20.4685 1.68376ZM2.12448 22.2713L1.58912 21.6965L2.1796 20.4098L3.29755 21.6279L2.12448 22.2713ZM5.37602 21.2934L6.29715 20.4355L3.27394 17.1158L2.48664 18.1194C2.42464 18.1919 2.42464 18.3043 2.48664 18.3768L2.53388 18.4283L5.09259 21.2419L5.13983 21.2934C5.20772 21.357 5.30812 21.357 5.37602 21.2934ZM16.532 13.2728L16.0439 13.8047C15.9064 13.9555 15.7194 14.0404 15.5243 14.0404C15.3291 14.0404 15.1421 13.9555 15.0046 13.8047L12.4853 11.0596L9.59592 7.94579L9.35973 7.68845C9.0756 7.37449 9.0756 6.87009 9.35973 6.55613L9.83998 5.97282C9.97744 5.82195 10.1645 5.7371 10.3596 5.7371C10.5547 5.7371 10.7417 5.82195 10.8792 5.97282L16.532 12.1405C16.6705 12.2903 16.7483 12.4941 16.7483 12.7066C16.7483 12.9192 16.6705 13.123 16.532 13.2728ZM20.1557 3.76975C19.497 2.42052 18.2101 1.5759 16.8075 1.57224L16.7761 1.56366C16.0287 1.57015 15.2999 1.81792 14.6818 2.27565L19.9567 8.02299C20.7379 6.75372 20.8144 5.11898 20.1557 3.76975Z" fill="#9A9998"/>
<path d="M8.55669 13.5302L7.91898 14.225C7.73334 14.4272 7.66084 14.7221 7.72879 14.9984C7.79674 15.2747 7.99482 15.4905 8.24841 15.5645C8.502 15.6386 8.77257 15.5596 8.95821 15.3573L9.59592 14.6625C9.78156 14.4602 9.85406 14.1654 9.78612 13.8891C9.71817 13.6128 9.52009 13.397 9.2665 13.3229C9.01291 13.2489 8.74233 13.3279 8.55669 13.5302Z" fill="#9A9998"/>
</svg>
