<svg width="19" height="25" viewBox="0 0 19 25" fill="none" xmlns="http://www.w3.org/2000/svg">
<path fill-rule="evenodd" clip-rule="evenodd" d="M17.4481 13.5652C17.4635 13.5672 17.4789 13.5691 17.4948 13.5691C18.1311 13.5691 18.6475 13.0902 18.6475 12.5C18.6475 11.9098 18.1311 11.4309 17.4948 11.4309C17.4789 11.4309 17.4635 11.4328 17.4481 11.4348L17.448 11.4348C17.4367 11.4362 17.4253 11.4377 17.4135 11.4383C17.1006 9.25891 15.8448 7.35799 14.0368 6.09641V2.3432C14.0368 1.16234 13.0046 0.20493 11.7315 0.20493H5.96818C4.69507 0.20493 3.66286 1.16234 3.66286 2.3432V6.09641C1.56674 7.55899 0.204868 9.87901 0.204868 12.5C0.204868 15.1205 1.56674 17.4405 3.66286 18.9036V22.6568C3.66286 23.8377 4.69507 24.7951 5.96818 24.7951H11.7315C13.0046 24.7951 14.0368 23.8377 14.0368 22.6568V18.9036C15.8442 17.642 17.1006 15.7411 17.4135 13.5617C17.4253 13.5623 17.4367 13.5638 17.448 13.5652L17.4481 13.5652ZM5.96818 23.7259C5.33191 23.7259 4.81552 23.247 4.81552 22.6568V19.5894C6.02063 20.1801 7.3923 20.5185 8.84984 20.5185C10.3074 20.5185 11.679 20.1801 12.8842 19.5894V22.6568C12.8842 23.247 12.3678 23.7259 11.7315 23.7259H5.96818ZM12.8842 2.3432C12.8842 1.75304 12.3678 1.27407 11.7315 1.27407H5.96818C5.33191 1.27407 4.81552 1.75304 4.81552 2.3432V5.41056C6.02063 4.81932 7.3923 4.48148 8.84984 4.48148C10.3074 4.48148 11.679 4.81932 12.8842 5.41056V2.3432ZM1.35753 12.5C1.35753 8.6618 4.71178 5.55061 8.84984 5.55061C12.9879 5.55061 16.3421 8.6618 16.3421 12.5C16.3421 16.3382 12.9879 19.4494 8.84984 19.4494C4.71178 19.4494 1.35753 16.3382 1.35753 12.5ZM9.42617 14.0053V17.3111C9.42617 17.6067 9.16855 17.8457 8.84984 17.8457C8.53113 17.8457 8.27351 17.6067 8.27351 17.3111V14.0053C7.60381 13.7846 7.12084 13.1971 7.12084 12.5C7.12084 12.2482 7.18885 12.0135 7.30066 11.8008L5.55668 10.1832C5.3371 9.97951 5.3371 9.64861 5.55668 9.44494C5.77684 9.24127 6.13301 9.24127 6.35259 9.44494L8.09657 11.0625C8.32538 10.9594 8.57839 10.8963 8.84984 10.8963C9.80482 10.8963 10.5788 11.6148 10.5788 12.5C10.5788 13.1976 10.0964 13.7846 9.42617 14.0053ZM8.27351 12.5C8.27351 12.2044 8.53113 11.9654 8.84984 11.9654C9.16855 11.9654 9.42617 12.2044 9.42617 12.5C9.42617 12.7956 9.16855 13.0346 8.84984 13.0346C8.53113 13.0346 8.27351 12.7956 8.27351 12.5Z" fill="#9A9998"/>
<path d="M17.4481 13.5652L17.4739 13.3619L17.4735 13.3619L17.4481 13.5652ZM17.4481 11.4348L17.4735 11.6381L17.4739 11.6381L17.4481 11.4348ZM17.448 11.4348L17.4226 11.2314L17.4223 11.2315L17.448 11.4348ZM17.4135 11.4383L17.2107 11.4675L17.2375 11.6538L17.4254 11.6429L17.4135 11.4383ZM14.0368 6.09641H13.8319V6.20329L13.9196 6.26446L14.0368 6.09641ZM3.66286 6.09641L3.78012 6.26446L3.86777 6.20329V6.09641H3.66286ZM3.66286 18.9036H3.86777V18.7967L3.78014 18.7356L3.66286 18.9036ZM14.0368 18.9036L13.9195 18.7356L13.8319 18.7967V18.9036H14.0368ZM17.4135 13.5617L17.4254 13.3571L17.2375 13.3462L17.2107 13.5325L17.4135 13.5617ZM17.448 13.5652L17.4223 13.7685L17.4226 13.7686L17.448 13.5652ZM4.81552 19.5894L4.90571 19.4054L4.6106 19.2608V19.5894H4.81552ZM12.8842 19.5894H13.0891V19.2608L12.794 19.4054L12.8842 19.5894ZM4.81552 5.41056H4.6106V5.73934L4.90578 5.59453L4.81552 5.41056ZM12.8842 5.41056L12.7939 5.59453L13.0891 5.73934V5.41056H12.8842ZM9.42617 14.0053L9.36206 13.8107L9.22125 13.8571V14.0053H9.42617ZM8.27351 14.0053H8.47842V13.8571L8.33767 13.8107L8.27351 14.0053ZM7.30066 11.8008L7.48206 11.8961L7.55504 11.7572L7.44001 11.6505L7.30066 11.8008ZM5.55668 10.1832L5.41733 10.3334L5.55668 10.1832ZM5.55668 9.44494L5.41752 9.29452L5.41733 9.2947L5.55668 9.44494ZM6.35259 9.44494L6.21324 9.59518L6.35259 9.44494ZM8.09657 11.0625L7.95722 11.2128L8.05689 11.3052L8.18081 11.2494L8.09657 11.0625ZM17.4948 13.3642C17.4951 13.3642 17.494 13.3642 17.4905 13.3639C17.4866 13.3635 17.4822 13.363 17.4739 13.3619L17.4223 13.7685C17.4358 13.7702 17.4639 13.7741 17.4948 13.7741V13.3642ZM18.4426 12.5C18.4426 12.9627 18.0327 13.3642 17.4948 13.3642V13.7741C18.2295 13.7741 18.8524 13.2176 18.8524 12.5H18.4426ZM17.4948 11.6358C18.0327 11.6358 18.4426 12.0373 18.4426 12.5H18.8524C18.8524 11.7824 18.2295 11.2259 17.4948 11.2259V11.6358ZM17.4739 11.6381C17.4822 11.637 17.4866 11.6365 17.4905 11.6361C17.494 11.6358 17.4951 11.6358 17.4948 11.6358V11.2259C17.4639 11.2259 17.4358 11.2298 17.4223 11.2315L17.4739 11.6381ZM17.4735 11.6381L17.4735 11.6381L17.4227 11.2314L17.4226 11.2314L17.4735 11.6381ZM17.4254 11.6429C17.4452 11.6418 17.4635 11.6394 17.4738 11.6381L17.4223 11.2315C17.4098 11.2331 17.4053 11.2336 17.4017 11.2338L17.4254 11.6429ZM13.9196 6.26446C15.6852 7.49652 16.9065 9.34909 17.2107 11.4675L17.6164 11.4092C17.2947 9.16873 16.0043 7.21946 14.1541 5.92836L13.9196 6.26446ZM13.8319 2.3432V6.09641H14.2417V2.3432H13.8319ZM11.7315 0.409848C12.9062 0.409848 13.8319 1.28976 13.8319 2.3432H14.2417C14.2417 1.03493 13.103 1.25041e-05 11.7315 1.25041e-05V0.409848ZM5.96818 0.409848H11.7315V1.25041e-05H5.96818V0.409848ZM3.86777 2.3432C3.86777 1.28976 4.79345 0.409848 5.96818 0.409848V1.25041e-05C4.59668 1.25041e-05 3.45794 1.03493 3.45794 2.3432H3.86777ZM3.86777 6.09641V2.3432H3.45794V6.09641H3.86777ZM0.409786 12.5C0.409786 9.95321 1.73273 7.69304 3.78012 6.26446L3.5456 5.92835C1.40075 7.42493 -5.00318e-05 9.80482 -5.00318e-05 12.5H0.409786ZM3.78014 18.7356C1.73272 17.3064 0.409786 15.0462 0.409786 12.5H-5.00318e-05C-5.00318e-05 15.1947 1.40076 17.5745 3.54557 19.0716L3.78014 18.7356ZM3.86777 22.6568V18.9036H3.45794V22.6568H3.86777ZM5.96818 24.5902C4.79345 24.5902 3.86777 23.7102 3.86777 22.6568H3.45794C3.45794 23.9651 4.59668 25 5.96818 25V24.5902ZM11.7315 24.5902H5.96818V25H11.7315V24.5902ZM13.8319 22.6568C13.8319 23.7102 12.9062 24.5902 11.7315 24.5902V25C13.103 25 14.2417 23.9651 14.2417 22.6568H13.8319ZM13.8319 18.9036V22.6568H14.2417V18.9036H13.8319ZM17.2107 13.5325C16.9065 15.6509 15.6846 17.5035 13.9195 18.7356L14.1541 19.0716C16.0037 17.7805 17.2947 15.8313 17.6164 13.5908L17.2107 13.5325ZM17.4738 13.3619C17.4635 13.3606 17.4452 13.3582 17.4254 13.3571L17.4017 13.7662C17.4053 13.7664 17.4098 13.7669 17.4223 13.7685L17.4738 13.3619ZM17.4735 13.3619L17.4735 13.3619L17.4226 13.7686L17.4227 13.7686L17.4735 13.3619ZM4.6106 22.6568C4.6106 23.3744 5.23353 23.9309 5.96818 23.9309V23.521C5.4303 23.521 5.02044 23.1195 5.02044 22.6568H4.6106ZM4.6106 19.5894V22.6568H5.02044V19.5894H4.6106ZM8.84984 20.3136C7.42424 20.3136 6.08336 19.9827 4.90571 19.4054L4.72533 19.7734C5.9579 20.3776 7.36035 20.7234 8.84984 20.7234V20.3136ZM12.794 19.4054C11.6163 19.9827 10.2754 20.3136 8.84984 20.3136V20.7234C10.3393 20.7234 11.7418 20.3776 12.9743 19.7734L12.794 19.4054ZM13.0891 22.6568V19.5894H12.6792V22.6568H13.0891ZM11.7315 23.9309C12.4662 23.9309 13.0891 23.3744 13.0891 22.6568H12.6792C12.6792 23.1195 12.2694 23.521 11.7315 23.521V23.9309ZM5.96818 23.9309H11.7315V23.521H5.96818V23.9309ZM11.7315 1.47898C12.2694 1.47898 12.6792 1.88046 12.6792 2.3432H13.0891C13.0891 1.62562 12.4662 1.06915 11.7315 1.06915V1.47898ZM5.96818 1.47898H11.7315V1.06915H5.96818V1.47898ZM5.02044 2.3432C5.02044 1.88046 5.4303 1.47898 5.96818 1.47898V1.06915C5.23353 1.06915 4.6106 1.62562 4.6106 2.3432H5.02044ZM5.02044 5.41056V2.3432H4.6106V5.41056H5.02044ZM8.84984 4.27656C7.36041 4.27656 5.95792 4.62184 4.72526 5.22659L4.90578 5.59453C6.08334 5.01681 7.42419 4.68639 8.84984 4.68639V4.27656ZM12.9744 5.22659C11.7418 4.62184 10.3393 4.27656 8.84984 4.27656V4.68639C10.2755 4.68639 11.6163 5.01681 12.7939 5.59453L12.9744 5.22659ZM12.6792 2.3432V5.41056H13.0891V2.3432H12.6792ZM8.84984 5.3457C4.61339 5.3457 1.15261 8.53438 1.15261 12.5H1.56245C1.56245 8.78922 4.81016 5.75553 8.84984 5.75553V5.3457ZM16.5471 12.5C16.5471 8.53438 13.0863 5.3457 8.84984 5.3457V5.75553C12.8895 5.75553 16.1372 8.78922 16.1372 12.5H16.5471ZM8.84984 19.6543C13.0863 19.6543 16.5471 16.4656 16.5471 12.5H16.1372C16.1372 16.2108 12.8895 19.2445 8.84984 19.2445V19.6543ZM1.15261 12.5C1.15261 16.4656 4.61339 19.6543 8.84984 19.6543V19.2445C4.81016 19.2445 1.56245 16.2108 1.56245 12.5H1.15261ZM9.63109 17.3111V14.0053H9.22125V17.3111H9.63109ZM8.84984 18.0506C9.26693 18.0506 9.63109 17.7341 9.63109 17.3111H9.22125C9.22125 17.4793 9.07017 17.6408 8.84984 17.6408V18.0506ZM8.06859 17.3111C8.06859 17.7341 8.43274 18.0506 8.84984 18.0506V17.6408C8.62951 17.6408 8.47842 17.4793 8.47842 17.3111H8.06859ZM8.06859 14.0053V17.3111H8.47842V14.0053H8.06859ZM6.91593 12.5C6.91593 13.2977 7.46787 13.9555 8.20935 14.2L8.33767 13.8107C7.73975 13.6136 7.32576 13.0964 7.32576 12.5H6.91593ZM7.11926 11.7055C6.99437 11.9431 6.91593 12.2103 6.91593 12.5H7.32576C7.32576 12.2862 7.38333 12.084 7.48206 11.8961L7.11926 11.7055ZM5.41733 10.3334L7.16131 11.951L7.44001 11.6505L5.69603 10.0329L5.41733 10.3334ZM5.41733 9.2947C5.11033 9.57946 5.11033 10.0487 5.41733 10.3334L5.69603 10.0329C5.56387 9.91036 5.56387 9.71777 5.69603 9.59518L5.41733 9.2947ZM6.49195 9.2947C6.19366 9.01803 5.71612 9.01828 5.41752 9.29452L5.69584 9.59536C5.83756 9.46426 6.07236 9.46451 6.21324 9.59518L6.49195 9.2947ZM8.23593 10.9123L6.49195 9.2947L6.21324 9.59518L7.95722 11.2128L8.23593 10.9123ZM8.84984 10.6914C8.54601 10.6914 8.26441 10.7621 8.01234 10.8757L8.18081 11.2494C8.38635 11.1567 8.61076 11.1012 8.84984 11.1012V10.6914ZM10.7838 12.5C10.7838 11.4874 9.90325 10.6914 8.84984 10.6914V11.1012C9.70639 11.1012 10.3739 11.7421 10.3739 12.5H10.7838ZM9.49028 14.2C10.2324 13.9555 10.7838 13.2982 10.7838 12.5H10.3739C10.3739 13.097 9.96047 13.6136 9.36206 13.8107L9.49028 14.2ZM8.84984 11.7605C8.43274 11.7605 8.06859 12.077 8.06859 12.5H8.47842C8.47842 12.3318 8.62951 12.1703 8.84984 12.1703V11.7605ZM9.63109 12.5C9.63109 12.077 9.26693 11.7605 8.84984 11.7605V12.1703C9.07017 12.1703 9.22125 12.3318 9.22125 12.5H9.63109ZM8.84984 13.2395C9.26693 13.2395 9.63109 12.923 9.63109 12.5H9.22125C9.22125 12.6682 9.07017 12.8297 8.84984 12.8297V13.2395ZM8.06859 12.5C8.06859 12.923 8.43274 13.2395 8.84984 13.2395V12.8297C8.62951 12.8297 8.47842 12.6682 8.47842 12.5H8.06859Z" fill="#9A9998"/>
</svg>
