<svg width="14" height="26" viewBox="0 0 14 26" fill="none" xmlns="http://www.w3.org/2000/svg">
<path fill-rule="evenodd" clip-rule="evenodd" d="M7.82362 16.0041V12.6012C8.19559 12.7076 8.69156 12.7607 9.24952 12.7607C9.80747 12.7607 10.4894 12.7076 11.1094 12.4417C12.4113 11.9632 13.4032 11.0061 13.9612 9.57055C14.0852 9.3047 13.8992 8.98569 13.5892 8.87935C11.9773 8.34765 10.4894 8.34765 9.24952 8.93252C8.62956 9.19836 8.19559 9.51738 7.76163 9.88957V7.28425C7.94761 7.39059 8.1956 7.44376 8.44358 7.44376C8.81555 7.44376 9.24952 7.33742 9.74548 7.07157C10.5514 6.64622 10.9234 6.16769 10.8614 5.58282C10.7994 5.2638 10.6134 4.99795 10.3654 4.78528C10.6134 4.78528 10.8614 4.67894 11.0474 4.5726C11.5433 4.25358 11.7293 3.66871 11.5433 2.87117C11.3574 2.07362 10.9854 1.59509 10.3654 1.43558C9.93146 1.32924 9.4975 1.43558 9.06353 1.64826C9.12553 1.32924 9.12553 1.01022 9.00153 0.744376C8.75355 0.265849 8.1336 0 7.14167 0C6.21174 0 5.59179 0.265849 5.28181 0.744376C5.15782 1.01022 5.09583 1.32924 5.21982 1.59509C5.03383 1.48875 4.84785 1.43558 4.59986 1.38241C3.97991 1.32924 3.42195 1.64826 2.92599 2.39264C2.43003 3.08384 2.36803 3.66871 2.74 4.14724C3.04998 4.51943 3.54594 4.67894 4.04191 4.73211C3.73193 4.99795 3.48395 5.2638 3.48395 5.63599C3.42195 6.16769 3.85592 6.64622 4.66186 7.07157C5.15782 7.28425 5.5298 7.39059 5.90177 7.39059C6.14975 7.39059 6.33573 7.33742 6.58372 7.23108V12.5481C6.14975 12.0695 5.5298 11.591 4.72386 11.272C3.48395 10.7935 1.99606 10.7935 0.384181 11.3783C0.0742046 11.4847 -0.111781 11.8037 0.0742046 12.0695C0.756153 13.4519 1.74808 14.409 3.04998 14.8344C3.60794 14.9939 4.1659 15.1002 4.72386 15.1002C5.4678 15.1002 6.14975 14.9407 6.58372 14.8344V15.8978H1.00413C0.818149 15.8978 0.632163 15.9509 0.570167 16.0573C0.558627 16.0771 0.544939 16.0987 0.530302 16.1218C0.466307 16.223 0.384181 16.3528 0.384181 16.4826L1.4381 25.5215C1.5001 25.7873 1.74808 26 2.05806 26H12.2873C12.5973 26 12.8452 25.7873 12.9072 25.5215L13.9612 16.4826C13.9612 16.3231 13.8992 16.1636 13.7752 16.0573C13.6863 15.9811 13.6293 15.9868 13.5357 15.9961C13.4987 15.9998 13.4559 16.0041 13.4032 16.0041H7.82362ZM9.80747 9.94274C10.6134 9.62372 11.4813 9.57055 12.5353 9.78323C12.0393 10.6339 11.4194 11.2188 10.6134 11.4847C9.62149 11.8569 8.62956 11.6973 8.00961 11.591C8.31959 11.0593 8.87754 10.3149 9.80747 9.94274ZM1.5001 12.3354C1.99606 13.1861 2.67801 13.7178 3.48395 13.9836C4.47587 14.3027 5.4678 14.1431 6.08775 13.9836C5.77778 13.5051 5.21982 12.7607 4.22789 12.3885C3.42195 12.0695 2.49202 12.0695 1.5001 12.3354ZM7.82362 3.77505C7.82362 4.09407 7.57564 4.30675 7.20367 4.30675C6.8317 4.30675 6.58372 4.09407 6.58372 3.77505C6.58372 3.45603 6.8317 3.24335 7.20367 3.24335C7.51365 3.24335 7.82362 3.45603 7.82362 3.77505ZM8.44358 6.43354C8.44358 6.43354 8.69156 6.48671 9.12553 6.22086C9.62149 5.95501 9.68348 5.7955 9.68348 5.74233C9.68348 5.58282 9.06353 5.21063 8.50557 5.05112C8.47458 5.05112 8.45908 5.03783 8.44358 5.02454C8.42808 5.01125 8.41258 4.99795 8.38158 4.99795C8.3579 5.01826 8.34327 5.03857 8.33077 5.05592C8.31054 5.08399 8.29591 5.10429 8.25759 5.10429V5.21063C8.1956 5.74233 8.25759 6.3272 8.44358 6.43354ZM10.1175 2.49898C10.1794 2.49898 10.3034 2.60532 10.4274 3.08384C10.5514 3.56237 10.4274 3.72188 10.4274 3.72188C10.2414 3.82822 9.62149 3.66871 9.06353 3.45603C9.06353 3.39374 9.04226 3.33145 9.02463 3.27984L9.02463 3.27983C9.01217 3.24335 9.00153 3.21221 9.00153 3.19018C9.31151 2.818 9.93147 2.49898 10.1175 2.49898ZM7.20367 1.11656C6.64571 1.11656 6.45973 1.2229 6.45973 1.27607C6.39773 1.38241 6.58372 1.80777 6.89369 2.23313H7.20367H7.51365C7.82362 1.86094 8.00961 1.43558 7.94761 1.27607C7.88562 1.2229 7.76163 1.11656 7.20367 1.11656ZM4.04191 2.9775C4.28989 2.55215 4.53787 2.49898 4.53787 2.49898C4.72386 2.49898 5.15782 2.9775 5.34381 3.5092V3.72188H5.21982C4.59986 3.77505 3.91792 3.72188 3.79393 3.56237C3.79393 3.56237 3.79393 3.40286 4.04191 2.9775ZM5.28181 6.22086C5.71578 6.48671 5.96376 6.43354 5.96376 6.43354C6.14975 6.3272 6.21174 5.68916 6.14975 5.15746V5.05112C6.11875 5.05112 6.10325 5.03783 6.08775 5.02454C6.07225 5.01125 6.05676 4.99795 6.02576 4.99795C6.02576 4.99795 5.96376 5.05112 5.90177 5.05112C5.34381 5.2638 4.72386 5.63599 4.72386 5.7955C4.72386 5.84867 4.78585 6.00818 5.28181 6.22086ZM12.7213 17.0675L11.9153 23.7137H2.49202L1.68608 17.0675H12.7213ZM2.55402 24.2454L2.61601 25.0429H11.7293L11.8533 24.2454H2.55402Z" fill="#9A9998"/>
</svg>
