<svg width="20" height="30" viewBox="0 0 20 30" fill="none" xmlns="http://www.w3.org/2000/svg">
<path fill-rule="evenodd" clip-rule="evenodd" d="M0.68458 26.5735H19.3154C19.6935 26.5735 20 26.2614 20 25.8764V13.798C20 13.4131 19.6935 13.1009 19.3154 13.1009H0.68458C0.306486 13.1009 0 13.4131 0 13.798V25.8764C0 26.2613 0.306486 26.5735 0.68458 26.5735ZM18.6308 25.1793H1.36916V14.4951H18.6308V25.1793Z" fill="#9A9998"/>
<path d="M10.0664 14.4615C9.68832 14.4615 9.38184 14.1493 9.38184 13.7644V8.0226C9.38184 7.63767 9.68832 7.32552 10.0664 7.32552C10.4445 7.32552 10.751 7.63767 10.751 8.0226V13.7644C10.751 14.1494 10.4445 14.4615 10.0664 14.4615Z" fill="#9A9998"/>
<path fill-rule="evenodd" clip-rule="evenodd" d="M13.8856 8.71969H13.887C14.2651 8.71969 14.5716 8.4076 14.5716 8.02253C14.5716 7.98224 14.5682 7.94272 14.5618 7.90431L13.809 0.6241C13.7723 0.269284 13.4786 0 13.1282 0H7.00457C6.6542 0 6.36045 0.269284 6.32376 0.6241L5.56627 7.94962C5.54594 8.14606 5.60851 8.34208 5.7383 8.48895C5.8681 8.63583 6.05307 8.71969 6.24708 8.71969H13.8856ZM13.1252 7.32552H7.00758L7.6209 1.39417H12.5119L13.1252 7.32552Z" fill="#9A9998"/>
<path d="M11.9601 11.0439C11.582 11.0439 11.2755 10.7318 11.2755 10.3468V8.0226C11.2755 7.63767 11.582 7.32552 11.9601 7.32552C12.3382 7.32552 12.6447 7.63767 12.6447 8.0226V10.3468C12.6447 10.7318 12.3382 11.0439 11.9601 11.0439Z" fill="#9A9998"/>
<path d="M0.68458 30C0.306486 30 0 29.6878 0 29.3029V25.8765C0 25.4915 0.306486 25.1794 0.68458 25.1794C1.06267 25.1794 1.36916 25.4915 1.36916 25.8765V29.3029C1.36916 29.6878 1.06267 30 0.68458 30Z" fill="#9A9998"/>
<path d="M19.3154 30C18.9373 30 18.6309 29.6878 18.6309 29.3029V25.8765C18.6309 25.4915 18.9373 25.1794 19.3154 25.1794C19.6935 25.1794 20 25.4915 20 25.8765V29.3029C20 29.6878 19.6935 30 19.3154 30Z" fill="#9A9998"/>
<path d="M11.9601 20.5344H7.55958C7.18149 20.5344 6.875 20.2222 6.875 19.8373C6.875 19.4523 7.18149 19.1402 7.55958 19.1402H11.9601C12.3382 19.1402 12.6447 19.4523 12.6447 19.8373C12.6447 20.2222 12.3382 20.5344 11.9601 20.5344Z" fill="#9A9998"/>
</svg>
