<svg width="24" height="24" viewBox="0 0 24 24" fill="none" xmlns="http://www.w3.org/2000/svg">
<path fill-rule="evenodd" clip-rule="evenodd" d="M22.2857 6.85714H18.8571V6.61607C18.8571 2.94643 15.9107 0 12.2411 0H11.8125C8.14286 0 5.14286 2.94643 5.14286 6.61607V6.85714H1.71429L0 24H24L22.2857 6.85714ZM6.85714 6.61607C6.85714 3.9 9.09643 1.71429 11.8125 1.71429H12.2143H12.2411C14.9571 1.71429 17.1429 3.9 17.1429 6.61607V6.85714H6.85714V6.61607ZM3.25179 8.57143L1.91786 22.2857H22.0875L20.7536 8.57143H18.8571V10.5161C19.3714 10.8107 19.7143 11.3679 19.7143 12C19.7143 12.9482 18.9482 13.7143 18 13.7143C17.0518 13.7143 16.2857 12.9482 16.2857 12C16.2857 11.3679 16.6286 10.8107 17.1429 10.5161V8.57143H6.85714V10.5161C7.37143 10.8107 7.71429 11.3679 7.71429 12C7.71429 12.9482 6.94821 13.7143 6 13.7143C5.05179 13.7143 4.28571 12.9482 4.28571 12C4.28571 11.3679 4.62857 10.8107 5.14286 10.5161V8.57143H3.25179Z" fill="#9A9998"/>
</svg>
