<svg width="24" height="22" viewBox="0 0 24 22" fill="none" xmlns="http://www.w3.org/2000/svg">
<path fill-rule="evenodd" clip-rule="evenodd" d="M11.5983 21.6316L12 22L12.4017 21.6316C21.5397 13.8421 24 11.1053 24 6.63158C24 3 21.1883 0 17.6736 0C14.7615 0 13.1046 1.73684 12 3.05263C10.8954 1.73684 9.23849 0 6.32636 0C2.86192 0 0 2.94737 0 6.63158C0 11.1053 2.46025 13.8421 11.5983 21.6316ZM1.30544 6.63158C1.30544 3.73684 3.56485 1.36842 6.32636 1.36842C8.83682 1.36842 10.1925 2.94737 11.2469 4.21053L12 5.10526L12.7531 4.21053C13.8075 2.94737 15.1632 1.36842 17.6736 1.36842C20.4351 1.36842 22.6946 3.73684 22.6946 6.63158C22.6946 10.4737 20.3849 13 12 20.2105C3.61506 13 1.30544 10.4737 1.30544 6.63158Z" fill="#9A9998"/>
</svg>
