<svg width="24" height="24" viewBox="0 0 24 24" fill="none" xmlns="http://www.w3.org/2000/svg">
<path fill-rule="evenodd" clip-rule="evenodd" d="M22.6661 5.33569L23.6984 3.25941L22.8169 2.81864L23.9768 1.6587L22.3645 0L21.2046 1.15993L20.7638 0.278384L18.6875 1.31072L19.4763 2.88823L18.9427 3.4218C14.158 -0.491346 7.14531 0.0348973 2.99822 4.6183C-1.14887 9.2017 -0.973308 16.2319 3.39738 20.6026C7.76808 24.9733 14.7983 25.1489 19.3817 21.0018C23.9651 16.8547 24.4913 9.84199 20.5782 5.05731L21.1118 4.52374L22.6661 5.33569ZM20.8682 12.4229C20.8756 16.7416 17.9027 20.4945 13.6969 21.4757C9.49109 22.4568 5.16441 20.4068 3.26009 16.5306C1.35577 12.6544 2.37731 7.97685 5.72423 5.24747C9.07115 2.51809 13.8586 2.45849 17.2724 5.1037L15.6137 6.75081C12.6652 4.65276 8.6009 5.16433 6.26433 7.92758C3.92776 10.6908 4.09868 14.7837 6.6575 17.3425C9.21632 19.9013 13.3092 20.0722 16.0724 17.7357C18.8357 15.3991 19.3472 11.3348 17.2492 8.38631L18.9079 6.73921C20.174 8.36372 20.8636 10.3633 20.8682 12.4229ZM11.5887 17.0626C14.1512 17.0626 16.2284 14.9853 16.2284 12.4229C16.2165 11.6048 15.9884 10.8045 15.5673 10.103L12.7487 12.8985V13.5828H10.4288V11.2629H11.1131L13.9086 8.44431C13.2071 8.02324 12.4068 7.79515 11.5887 7.78315C9.02627 7.78315 6.94899 9.86043 6.94899 12.4229C6.94899 14.9853 9.02627 17.0626 11.5887 17.0626Z" fill="#9A9998"/>
</svg>
