<svg width="24" height="26" viewBox="0 0 24 26" fill="none" xmlns="http://www.w3.org/2000/svg">
<path fill-rule="evenodd" clip-rule="evenodd" d="M6.55681 24.9047H19.6719C21.6434 24.9047 23.1864 23.3898 23.1864 21.4541V21.4541C23.1864 20.0233 22.2435 18.6767 20.7862 18.1718L8.44264 13.9637C4.67098 12.7855 0.813606 15.4786 0.813606 19.2659V19.2659C0.813606 22.3798 3.38519 24.9047 6.55681 24.9047Z" stroke="white" stroke-width="1.6" stroke-linecap="round" stroke-linejoin="round"/>
<ellipse cx="10.2427" cy="19.855" rx="2.57158" ry="2.52483" stroke="white" stroke-width="1.6" stroke-linecap="round" stroke-linejoin="round"/>
<path d="M8.52834 7.23086H5.78532C4.24237 7.23086 2.78514 6.64173 1.67078 5.54764V5.54764" stroke="white" stroke-width="1.6" stroke-linecap="round" stroke-linejoin="round"/>
<path d="M5.9568 7.23087L9.38558 13.9637" stroke="white" stroke-width="1.6" stroke-linecap="round" stroke-linejoin="round"/>
<path d="M20.5291 3.02281L17.1004 16.4886" stroke="white" stroke-width="1.6" stroke-linecap="round" stroke-linejoin="round"/>
<path d="M16.2431 3.86442V3.86442C18.9004 3.86442 21.472 2.60201 23.1006 0.497983V0.497983" stroke="white" stroke-width="1.6" stroke-linecap="round" stroke-linejoin="round"/>
<path d="M10.2427 19.855H15.3859" stroke="white" stroke-width="1.6" stroke-linecap="round" stroke-linejoin="round"/>
</svg>
