<svg width="24" height="20" viewBox="0 0 24 20" fill="none" xmlns="http://www.w3.org/2000/svg">
<path fill-rule="evenodd" clip-rule="evenodd" d="M20.7287 0.346447C21.2644 -0.324642 21.977 0.184027 21.9913 0.194363C23.2121 1.13345 25.2432 3.58894 22.9763 8.66752C22.3094 10.0027 21.5877 17.3212 21.4228 19.2905V19.3669C21.4191 19.5474 21.3659 19.9922 20.9588 20C20.5246 19.9989 20.4318 19.6512 20.413 19.4504L20.4088 19.3097L20.4062 19.2123L19.9554 11.6701C19.9022 10.8137 19.4914 10.5682 19.1318 10.5187C18.9659 10.4977 18.6893 10.6524 18.3759 10.8864C18.3742 10.8881 18.3655 10.8971 18.3502 10.9129C18.0604 11.2121 15.4062 13.9526 13.8935 15.793C13.5158 16.2518 13.1427 16.7058 12.7991 17.1241H12.7983L12.7114 17.23C12.5273 17.4547 12.3516 17.669 12.1895 17.8657C11.4851 18.6608 10.2802 19.8232 9.16548 19.9498C8.68186 20.0074 8.10015 20.0188 7.39131 19.9446C5.37872 19.735 3.45252 18.9266 2.06729 17.9893C2.06614 17.9883 2.06537 17.9875 2.06471 17.9868C2.06365 17.9857 2.06288 17.9848 2.06125 17.9841C2.05843 17.983 2.05604 17.9813 2.05363 17.9795C2.05151 17.978 2.04938 17.9765 2.04692 17.9753C1.88887 17.8676 1.7456 17.7572 1.60318 17.6474C1.59126 17.6382 1.57935 17.629 1.56744 17.6198C0.705066 16.8653 0.232759 15.7852 0.204465 15.7184C0.0596043 15.2337 0.0116945 14.8133 0 14.6686C0.0392332 13.8399 0.404404 12.9753 1.57989 12.6416C2.40907 12.4065 3.02435 12.2201 3.47667 12.0754C3.47855 12.0754 3.47931 12.0754 3.48119 12.0739C4.55695 11.7459 5.04817 12.195 5.08185 12.2258C5.08309 12.227 5.0837 12.2275 5.08372 12.2275C6.03361 13.0359 8.15108 14.2839 10.5609 12.0935C13.3189 9.58408 19.0149 2.49999 20.7287 0.346447ZM18.5784 8.98977C19.869 7.71994 21.2719 6.19689 22.1155 4.86837C22.8061 3.79838 22.2164 2.62211 22.2021 2.59354L22.2018 2.59301C22.1456 2.51254 22.0872 2.43834 22.0287 2.36599C21.8759 2.21723 21.3987 1.90236 20.6329 2.79124C19.6487 3.93814 17.9537 5.89973 16.4315 7.60071C12.0242 13.4718 9.29865 14.3016 8.3578 14.3936C8.12693 14.4242 6.84657 14.5394 4.86756 13.6501C4.86756 13.6501 3.85617 13.1344 2.74255 13.4644C2.73538 13.467 2.73086 13.4685 2.72444 13.4696C2.6607 13.4884 2.59695 13.5068 2.53028 13.5261C2.49988 13.5348 2.46888 13.5438 2.43699 13.553C2.32645 13.5837 2.23441 13.6258 2.14425 13.6704C1.88734 13.8162 0.79485 14.5464 1.6776 15.8956L1.67926 15.8982C1.72773 15.9752 1.77551 16.0511 1.82661 16.1244C3.28125 18.0642 6.31994 18.5386 7.27474 18.6419C9.54197 18.9129 11.6877 16.5678 12.2117 15.9491C12.6293 15.4401 13.0813 14.8723 13.5347 14.2968C14.8479 12.6653 17.4407 10.1012 18.294 9.26736C18.3815 9.1832 18.4687 9.09867 18.5566 9.01192C18.5609 9.00731 18.5665 9.00177 18.571 8.99739C18.5755 8.993 18.5788 8.98977 18.5784 8.98977Z" fill="#9A9998"/>
</svg>
